# xmcd
#
# Track frame offsets:
#	150
#	17273
#	32535
#	47962
#	61198
#	79143
#	96235
#	115121
#	131069
#	147288
#	164472
#	179752
#	196670
#	209068
#	228010
#	244357
#	261329
#	277322
#	293289
#	311128
#	311951
#	312753
#	313621
#	314677
#	315595
#	316427
#	317289
#	318133
#	318979
#	319811
#	320733
#	321866
#	322794
#	323697
#	324582
#	325485
#	326349
#	327236
#	328182
#	329274
#	330298
#	331209
#	332099
#
# Disc length: 4435 seconds
#
# Revision: 1
# Processed by: cddbd v1.5.2PL0 Copyright (c) Steve Scherf et al.
# Submitted via: audiograbber 1.83.01
#
DISCID=7f11512b
DTITLE=Various Artist - CDX 614
DYEAR=2015
DGENRE=Country
TTITLE0=Toby Keith - 35 MPH Town
TTITLE1=Kacey Musgraves - Biscuits
TTITLE2=Casey James - Fall Apart (Radio Edit)
TTITLE3=Lady Antebellum - Long Stretch Of Love
TTITLE4=Blake Shelton - Sangria
TTITLE5=Chris Stapleton - Traveller
TTITLE6=CJ Garton - Away I Go
TTITLE7=Jason Terry - Green Light Go
TTITLE8=Zane Williams - Jayton And Jill
TTITLE9=Tyler Barham - Just Two Kids
TTITLE10=Katye Hamlin - Love Is Like Rain
TTITLE11=Michael Sarver - Miss You Something Crazy
TTITLE12=Vonn Kiss - She Don't Know Who I Am
TTITLE13=Steve Azar - The Sky Is Falling (Patti Jos Prayer)
TTITLE14=Josh Goodlett - Why You Gotta Be That Way
TTITLE15=Tyler Hammond - Wild One Tonight Bring On The Crazy
TTITLE16=Southside Drive - Broken Windows
TTITLE17=Southside Drive - Forgiven
TTITLE18=Southside Drive - Your Love Rescued Me
TTITLE19=Tyler Hammond - Home Town Country (Liner)
TTITLE20=Tyler Hammond - Kickin' Country (Liner)
TTITLE21=Tyler Hammond - More of the Country You Love (Liner)
TTITLE22=Tyler Hammond - My New Single (Liner)
TTITLE23=Tyler Hammond - Super Country (Liner)
TTITLE24=Tyler Hammond - The Best In Country Music (Liner)
TTITLE25=Tyler Hammond - Today's Best Country (Liner)
TTITLE26=Tyler Hammond - Today's Hot Country Music (Liner)
TTITLE27=James Otto - Home Town Country (Liner)
TTITLE28=James Otto - Kickin' Country (Liner)
TTITLE29=James Otto - More of the Country You Love (Liner)
TTITLE30=James Otto - My New Single (Liner)
TTITLE31=James Otto - Super Country (Liner)
TTITLE32=James Otto - The Best In Country Music (Liner)
TTITLE33=James Otto - Today's Best Country (Liner)
TTITLE34=James Otto - Today's Hot Country Music (Liner)
TTITLE35=Mitchell Tenpenny - Home Town Country (Liner)
TTITLE36=Mitchell Tenpenny - Kickin' Country (Liner)
TTITLE37=Mitchell Tenpenny - More of the Country You Love (Liner)
TTITLE38=Mitchell Tenpenny - My New Single (Liner)
TTITLE39=Mitchell Tenpenny - Super Country (Liner)
TTITLE40=Mitchell Tenpenny - The Best In Country Music (Liner)
TTITLE41=Mitchell Tenpenny - Today's Best Country (Liner)
TTITLE42=Mitchell Tenpenny - Today's Hot Country Music (Liner)
EXTD=
EXTT0=
EXTT1=
EXTT2=
EXTT3=
EXTT4=
EXTT5=
EXTT6=
EXTT7=
EXTT8=
EXTT9=
EXTT10=
EXTT11=
EXTT12=
EXTT13=
EXTT14=
EXTT15=
EXTT16=
EXTT17=
EXTT18=
EXTT19=
EXTT20=
EXTT21=
EXTT22=
EXTT23=
EXTT24=
EXTT25=
EXTT26=
EXTT27=
EXTT28=
EXTT29=
EXTT30=
EXTT31=
EXTT32=
EXTT33=
EXTT34=
EXTT35=
EXTT36=
EXTT37=
EXTT38=
EXTT39=
EXTT40=
EXTT41=
EXTT42=
PLAYORDER=
